<?xml version="1.0" encoding="UTF-8" standalone="no"?>
<!DOCTYPE svg PUBLIC "-//W3C//DTD SVG 1.1//EN" "http://www.w3.org/Graphics/SVG/1.1/DTD/svg11.dtd">
<svg width="100%" height="100%" viewBox="0 0 1425 1425" version="1.1" xmlns="http://www.w3.org/2000/svg" xmlns:xlink="http://www.w3.org/1999/xlink" xml:space="preserve" xmlns:serif="http://www.serif.com/" style="fill-rule:evenodd;clip-rule:evenodd;stroke-linejoin:round;stroke-miterlimit:2;">
    <g transform="matrix(1.12511,0,0,1.12511,-89.3956,-82.0881)">
        <g transform="matrix(1,0,0,1,-0.226373,11)">
            <rect x="262.804" y="562.664" width="899.845" height="149.836" style="fill:rgb(203,103,11);"/>
        </g>
        <g transform="matrix(1,0,0,1,-0.226373,345.249)">
            <rect x="262.804" y="562.664" width="899.845" height="149.836" style="fill:rgb(203,103,11);"/>
        </g>
    </g>
    <g transform="matrix(1.12511,0,0,1.12511,-89.3956,-82.0881)">
        <rect x="412.854" y="573.664" width="50.253" height="149.836" style="fill:rgb(164,83,9);"/>
        <g transform="matrix(1,0,0,1,0,334.249)">
            <rect x="412.854" y="573.664" width="50.253" height="149.836" style="fill:rgb(164,83,9);"/>
        </g>
        <g transform="matrix(1,0,0,1,449.696,0)">
            <rect x="412.854" y="573.664" width="50.253" height="149.836" style="fill:rgb(164,83,9);"/>
        </g>
        <g transform="matrix(1,0,0,1,449.696,334.249)">
            <rect x="412.854" y="573.664" width="50.253" height="149.836" style="fill:rgb(164,83,9);"/>
        </g>
    </g>
    <g transform="matrix(1.12511,0,0,1.12511,-89.3956,-82.0881)">
        <g transform="matrix(1,0,0,1,-12.7589,1)">
            <path d="M251.718,211.895C256.234,202.863 265.465,197.158 275.563,197.158C285.661,197.158 294.892,202.863 299.408,211.895C341.74,296.559 425.613,464.305 425.613,464.305L125.513,464.305C125.513,464.305 209.386,296.559 251.718,211.895Z" style="fill:rgb(242,124,16);"/>
        </g>
        <g transform="matrix(1,0,0,1,-12.7589,0)">
            <path d="M425.613,464.305L125.513,464.305L125.513,1187.68C125.513,1202.38 137.435,1214.31 152.141,1214.31L398.923,1214.31C413.663,1214.31 425.613,1202.36 425.613,1187.62C425.613,1054.02 425.613,464.305 425.613,464.305Z" style="fill:rgb(242,124,16);"/>
        </g>
        <g transform="matrix(1,0,0,1,436.937,1)">
            <path d="M251.718,211.895C256.234,202.863 265.465,197.158 275.563,197.158C285.661,197.158 294.892,202.863 299.408,211.895C341.74,296.559 425.613,464.305 425.613,464.305L125.513,464.305C125.513,464.305 209.386,296.559 251.718,211.895Z" style="fill:rgb(242,124,16);"/>
        </g>
        <g transform="matrix(1,0,0,1,436.937,0)">
            <path d="M425.613,464.305L125.513,464.305L125.513,1187.68C125.513,1202.38 137.435,1214.31 152.141,1214.31L398.923,1214.31C413.663,1214.31 425.613,1202.36 425.613,1187.62C425.613,1054.02 425.613,464.305 425.613,464.305Z" style="fill:rgb(242,124,16);"/>
        </g>
        <g transform="matrix(1,0,0,1,887.086,1)">
            <path d="M251.718,211.895C256.234,202.863 265.465,197.158 275.563,197.158C285.661,197.158 294.892,202.863 299.408,211.895C341.74,296.559 425.613,464.305 425.613,464.305L125.513,464.305C125.513,464.305 209.386,296.559 251.718,211.895Z" style="fill:rgb(242,124,16);"/>
        </g>
        <g transform="matrix(1,0,0,1,887.086,0)">
            <path d="M425.613,464.305L125.513,464.305L125.513,1187.68C125.513,1202.38 137.435,1214.31 152.141,1214.31L398.923,1214.31C413.663,1214.31 425.613,1202.36 425.613,1187.62C425.613,1054.02 425.613,464.305 425.613,464.305Z" style="fill:rgb(242,124,16);"/>
        </g>
    </g>
    <g transform="matrix(1.12511,0,0,1.12511,-89.3956,-82.0881)">
        <g>
            <path d="M412.854,1173.2L182.707,1173.2C173.018,1173.2 163.726,1177.05 156.874,1183.9C150.023,1190.75 146.174,1200.05 146.174,1209.73L146.174,1214.31L386.074,1214.31C393.177,1214.31 399.988,1211.48 405.01,1206.46C410.032,1201.44 412.854,1194.63 412.854,1187.53L412.854,1173.2Z" style="fill:rgb(203,103,11);"/>
            <g transform="matrix(1,0,0,1,0,2)">
                <path d="M412.854,464.305L408.064,464.305C397.913,464.305 388.177,468.337 380.998,475.516C373.82,482.694 369.787,492.43 369.787,502.582C369.787,650.051 369.787,1173.2 369.787,1173.2L412.854,1173.2L412.854,464.305Z" style="fill:rgb(203,103,11);"/>
            </g>
            <g transform="matrix(1,0,0,1,1,2)">
                <rect x="326.721" y="1132.1" width="43.066" height="41.104" style="fill:rgb(203,103,11);"/>
            </g>
        </g>
        <g transform="matrix(1,0,0,1,449.696,0)">
            <path d="M412.854,1173.2L182.707,1173.2C173.018,1173.2 163.726,1177.05 156.874,1183.9C150.023,1190.75 146.174,1200.05 146.174,1209.73L146.174,1214.31L386.074,1214.31C393.177,1214.31 399.988,1211.48 405.01,1206.46C410.032,1201.44 412.854,1194.63 412.854,1187.53L412.854,1173.2Z" style="fill:rgb(203,103,11);"/>
            <g transform="matrix(1,0,0,1,0,2)">
                <path d="M412.854,464.305L408.064,464.305C397.913,464.305 388.177,468.337 380.998,475.516C373.82,482.694 369.787,492.43 369.787,502.582C369.787,650.051 369.787,1173.2 369.787,1173.2L412.854,1173.2L412.854,464.305Z" style="fill:rgb(203,103,11);"/>
            </g>
            <g transform="matrix(1,0,0,1,1,2)">
                <rect x="326.721" y="1132.1" width="43.066" height="41.104" style="fill:rgb(203,103,11);"/>
            </g>
        </g>
        <g transform="matrix(1,0,0,1,899.845,1.47793e-12)">
            <path d="M412.854,1173.2L182.707,1173.2C173.018,1173.2 163.726,1177.05 156.874,1183.9C150.023,1190.75 146.174,1200.05 146.174,1209.73L146.174,1214.31L386.074,1214.31C393.177,1214.31 399.988,1211.48 405.01,1206.46C410.032,1201.44 412.854,1194.63 412.854,1187.53L412.854,1173.2Z" style="fill:rgb(203,103,11);"/>
            <g transform="matrix(1,0,0,1,0,2)">
                <path d="M412.854,464.305L408.064,464.305C397.913,464.305 388.177,468.337 380.998,475.516C373.82,482.694 369.787,492.43 369.787,502.582C369.787,650.051 369.787,1173.2 369.787,1173.2L412.854,1173.2L412.854,464.305Z" style="fill:rgb(203,103,11);"/>
            </g>
            <g transform="matrix(1,0,0,1,1,2)">
                <rect x="326.721" y="1132.1" width="43.066" height="41.104" style="fill:rgb(203,103,11);"/>
            </g>
        </g>
    </g>
    <g transform="matrix(1.12511,0,0,1.12511,-89.3956,-82.0881)">
        <g transform="matrix(1.04331,0,0,1.04331,-60.9463,-93.6936)">
            <path d="M412.854,1173.2L369.787,1173.2L369.787,1214.31L377.837,1214.31C387.124,1214.31 396.031,1210.62 402.597,1204.05C409.164,1197.48 412.854,1188.58 412.854,1179.29C412.854,1175.62 412.854,1173.2 412.854,1173.2Z" style="fill:rgb(242,124,16);"/>
        </g>
        <g transform="matrix(1.04331,0,0,1.04331,388.75,-93.6936)">
            <path d="M412.854,1173.2L369.787,1173.2L369.787,1214.31L377.837,1214.31C387.124,1214.31 396.031,1210.62 402.597,1204.05C409.164,1197.48 412.854,1188.58 412.854,1179.29C412.854,1175.62 412.854,1173.2 412.854,1173.2Z" style="fill:rgb(242,124,16);"/>
        </g>
        <g transform="matrix(1.04331,0,0,1.04331,838.899,-93.6936)">
            <path d="M412.854,1173.2L369.787,1173.2L369.787,1214.31L377.837,1214.31C387.124,1214.31 396.031,1210.62 402.597,1204.05C409.164,1197.48 412.854,1188.58 412.854,1179.29C412.854,1175.62 412.854,1173.2 412.854,1173.2Z" style="fill:rgb(242,124,16);"/>
        </g>
    </g>
</svg>
